<?xml version="1.0" encoding="utf-8"?>
<!-- Generator: Adobe Illustrator 24.0.3, SVG Export Plug-In . SVG Version: 6.00 Build 0)  -->
<svg version="1.1" id="Capa_1" xmlns="http://www.w3.org/2000/svg" xmlns:xlink="http://www.w3.org/1999/xlink" x="0px" y="0px"
	 viewBox="0 0 482.1 482.1" style="enable-background:new 0 0 482.1 482.1;" xml:space="preserve">
<style type="text/css">
	.st0{fill:#009688;}
</style>
<g>
	<path class="st0" d="M315.5,0H121.8C93.5,0,70.5,23,70.5,51.3v189.8h-5c-11.4,0-20.7,9.3-20.7,20.7v125.4
		c0,11.4,9.3,20.7,20.7,20.7h5v23c0,28.3,23,51.3,51.3,51.3H386c28.3,0,51.3-23,51.3-51.3V121.4L315.5,0z M79,279
		c7.2-1.1,16.6-1.8,26.6-1.8c16.5,0,27.2,3,35.6,9.3c9,6.7,14.7,17.4,14.7,32.8c0,16.6-6.1,28.1-14.5,35.2
		c-9.2,7.6-23.1,11.2-40.1,11.2c-10.2,0-17.4-0.6-22.3-1.3L79,279L79,279z M386,450.7H121.8c-11,0-19.9-8.9-19.9-19.9v-23h246.3
		c11.4,0,20.7-9.2,20.7-20.7V261.7c0-11.4-9.3-20.7-20.7-20.7H101.9V51.3c0-10.9,8.9-19.9,19.9-19.9l181.9-0.2v67.2
		c0,19.6,15.9,35.6,35.6,35.6l65.9-0.2l0.7,296.9C405.9,441.8,397,450.7,386,450.7z M164.9,322c0-26.1,16.6-45.5,42.3-45.5
		c26.7,0,41.3,20,41.3,44c0,28.5-17.3,45.8-42.7,45.8C180,366.2,164.9,346.7,164.9,322z M306,349.8c5.9,0,12.5-1.3,16.4-2.8l3,15.4
		c-3.6,1.8-11.7,3.8-22.3,3.8c-30.1,0-45.6-18.7-45.6-43.5c0-29.7,21.2-46.2,47.5-46.2c10.2,0,17.9,2.1,21.4,3.9l-4,15.6
		c-4-1.7-9.6-3.2-16.5-3.2c-15.6,0-27.7,9.4-27.7,28.8C278.1,338.8,288.4,349.8,306,349.8z"/>
	<path class="st0" d="M135,319.9c0.1-18.1-10.5-27.6-27.4-27.6c-4.4,0-7.2,0.4-8.9,0.8v56.9c1.7,0.4,4.4,0.4,6.8,0.4
		C123.4,350.5,135,340.7,135,319.9z"/>
	<path class="st0" d="M227.7,321c0-15.6-7.5-29-21-29c-13.3,0-21,12.7-21,29.5c0,17,8,29,21.2,29C220.1,350.6,227.7,337.9,227.7,321
		z"/>
</g>
</svg>
